<svg width="400" height="297" viewBox="0 0 400 297" fill="none" xmlns="http://www.w3.org/2000/svg">
<path d="M227.916 81.0871L214.228 104.791L167.413 23.7044L23.6992 272.593H121.003C121.003 278.88 123.5 284.909 127.945 289.354C132.391 293.8 138.42 296.297 144.707 296.297H23.6992C19.5387 296.296 15.4517 295.2 11.8489 293.12C8.24612 291.039 5.25446 288.046 3.17456 284.443C1.09466 280.84 -0.000201802 276.753 2.78994e-08 272.592C0.000201858 268.432 1.09544 264.344 3.17569 260.741L146.889 11.8525C148.97 8.24892 151.962 5.25645 155.565 3.17589C159.169 1.09533 163.257 0 167.418 0C171.579 0 175.666 1.09533 179.27 3.17589C182.873 5.25645 185.866 8.24892 187.946 11.8525L227.916 81.0871Z" fill="#00C58E"/>
<path d="M331.66 260.741L241.605 104.791L227.916 81.0871L214.228 104.791L124.183 260.741C122.103 264.345 121.008 268.432 121.007 272.592C121.007 276.753 122.102 280.84 124.182 284.443C126.262 288.046 129.254 291.039 132.856 293.12C136.459 295.2 140.546 296.296 144.707 296.297H311.107C315.268 296.298 319.356 295.203 322.96 293.123C326.564 291.043 329.558 288.051 331.639 284.447C333.72 280.844 334.815 276.756 334.816 272.595C334.816 268.433 333.721 264.345 331.64 260.741L331.66 260.741ZM144.707 272.593L227.916 128.495L311.107 272.593L144.707 272.593Z" fill="#2F495E"/>
<path d="M396.045 284.445C393.965 288.048 390.974 291.04 387.371 293.121C383.768 295.201 379.682 296.297 375.521 296.297H311.107C314.219 296.297 317.302 295.684 320.178 294.493C323.054 293.301 325.667 291.555 327.868 289.354C330.069 287.153 331.815 284.54 333.006 281.664C334.197 278.788 334.81 275.706 334.81 272.593H375.472L260.094 72.7612L241.605 104.791L227.917 81.0871L239.571 60.9093C241.651 57.3057 244.644 54.3132 248.247 52.2327C251.851 50.1521 255.938 49.0568 260.099 49.0568C264.26 49.0568 268.348 50.1521 271.951 52.2327C275.555 54.3132 278.547 57.3057 280.628 60.9093L396.045 260.741C398.125 264.345 399.221 268.432 399.221 272.593C399.221 276.754 398.125 280.842 396.045 284.445Z" fill="#108775"/>
</svg>
